<svg width="40" height="40" viewBox="0 0 40 40" fill="none" xmlns="http://www.w3.org/2000/svg">
<path d="M20 0C31.0457 0 40 8.9543 40 20C40 31.0457 31.0457 40 20 40C8.9543 40 0 31.0457 0 20C0 8.9543 8.9543 0 20 0ZM28.1982 13.3613C27.4618 12.8329 26.4486 12.8896 25.7764 13.4971L25.6377 13.6357L17.8086 22.3008L14.2871 18.8213H14.2881C13.5359 18.0771 12.32 18.078 11.5684 18.8213H11.5693C10.8108 19.5709 10.8104 20.7913 11.5693 21.541L16.5293 26.4424C16.8923 26.8011 17.3819 27 17.8887 27C17.91 27 17.9295 26.9992 17.9365 26.999H17.9434C18.4687 26.9839 18.9678 26.7557 19.3223 26.3633L28.5059 16.1982C29.2218 15.4059 29.1502 14.1882 28.3516 13.4834L28.1982 13.3613Z" fill="white"/>
</svg>
