<svg width="40" height="40" viewBox="0 0 40 40" fill="none" xmlns="http://www.w3.org/2000/svg">
<path d="M20 0C31.0457 0 40 8.9543 40 20C40 31.0457 31.0457 40 20 40C8.9543 40 0 31.0457 0 20C0 8.9543 8.9543 0 20 0ZM20 26.5C19.1716 26.5 18.5 27.1716 18.5 28C18.5 28.8284 19.1716 29.5 20 29.5C20.8284 29.5 21.5 28.8284 21.5 28C21.5 27.1716 20.8284 26.5 20 26.5ZM20 21.5C18.2959 21.5 16.6428 22.0805 15.3125 23.1455C15.0021 23.3942 14.8025 23.756 14.7588 24.1514C14.7152 24.5466 14.8305 24.9435 15.0791 25.2539C15.3279 25.5643 15.6905 25.764 16.0859 25.8076C16.4809 25.8511 16.8772 25.7356 17.1875 25.4873C17.9856 24.8486 18.9778 24.5 20 24.5C20.9584 24.5 21.8898 24.8065 22.6602 25.3711L22.8125 25.4873C23.0781 25.7003 23.4086 25.8155 23.749 25.8154L23.75 25.8164L24.249 25.8154V25.7285C24.3788 25.6827 24.5035 25.6205 24.6172 25.54C24.8706 25.3605 25.062 25.1065 25.165 24.8135C25.2681 24.5203 25.2778 24.2021 25.1924 23.9033C25.1069 23.6047 24.9308 23.3398 24.6885 23.1455H24.6875C23.3572 22.0806 21.7041 21.5 20 21.5ZM20.001 16.5C17.1611 16.4998 14.4054 17.4664 12.1885 19.2412C12.0339 19.3641 11.9052 19.5167 11.8096 19.6895C11.714 19.8622 11.6538 20.0528 11.6318 20.249C11.6099 20.4451 11.6267 20.6435 11.6816 20.833C11.7366 21.0227 11.8286 21.2004 11.9521 21.3545C12.0756 21.5084 12.2283 21.6367 12.4014 21.7314C12.5745 21.8262 12.7647 21.886 12.9609 21.9072C13.1573 21.9284 13.3564 21.9103 13.5459 21.8545C13.7353 21.7987 13.9119 21.7062 14.0654 21.582L14.0645 21.5811C15.7489 20.2333 17.8427 19.4999 20 19.5C22.158 19.5001 24.252 20.2352 25.9365 21.584C26.2025 21.7979 26.5337 21.9142 26.875 21.9141H27.5166L27.4834 21.7832C27.5734 21.7432 27.6609 21.6962 27.7422 21.6387C27.9957 21.4592 28.1869 21.205 28.29 20.9121C28.3932 20.6191 28.4026 20.3007 28.3174 20.002C28.2321 19.7034 28.0565 19.4385 27.8145 19.2441H27.8135C25.5966 17.4684 22.8414 16.5003 20.001 16.5ZM20 11.5C16.024 11.5 12.1657 12.8533 9.06152 15.3379C8.90735 15.4602 8.77928 15.6122 8.68359 15.7842C8.58743 15.9571 8.52626 16.1472 8.50391 16.3438C8.48156 16.5403 8.49783 16.7396 8.55273 16.9297C8.6076 17.1196 8.69965 17.2969 8.82324 17.4512C8.94697 17.6056 9.10086 17.7341 9.27441 17.8291C9.44789 17.924 9.63834 17.9839 9.83496 18.0049C10.0316 18.0259 10.2303 18.0073 10.4199 17.9512C10.6095 17.895 10.786 17.8015 10.9395 17.6768C13.5351 15.5974 16.6665 14.5 20 14.5C23.1259 14.5001 26.0732 15.4658 28.5684 17.3008L29.0615 17.6797C29.3273 17.8931 29.6581 18.009 29.999 18.0088L30.1143 18.0049C30.3841 17.9842 30.6441 17.8906 30.8662 17.7334C31.1198 17.5538 31.3119 17.3 31.415 17.0068C31.5181 16.7136 31.5269 16.3955 31.4414 16.0967C31.356 15.7979 31.18 15.5332 30.9375 15.3389V15.3379C27.8335 12.8534 23.9759 11.5001 20 11.5Z" fill="white"/>
</svg>
