<svg width="40" height="40" viewBox="0 0 40 40" fill="none" xmlns="http://www.w3.org/2000/svg">
<mask id="mask0_7226_2251" style="mask-type:alpha" maskUnits="userSpaceOnUse" x="0" y="0" width="40" height="40">
<circle cx="20" cy="20" r="20" fill="white"/>
</mask>
<g mask="url(#mask0_7226_2251)">
<path d="M18.4736 39.8857C17.4 39.8061 16.3346 39.6376 15.2891 39.3809C15.2689 39.3449 15.2447 39.3105 15.2178 39.2793C14.1719 37.8258 13.2612 36.2791 12.498 34.6592H18.4736V39.8857ZM27.4814 34.6592C26.7229 36.2816 25.8121 37.8286 24.7617 39.2793C24.7415 39.3096 24.7213 39.3506 24.7012 39.3809C23.6521 39.6368 22.5837 39.8053 21.5068 39.8857V34.6592H27.4814ZM9.15234 34.6592C9.6376 35.7612 10.1222 36.7524 10.5771 37.6016C9.09189 36.8007 7.71629 35.8113 6.4834 34.6592H9.15234ZM33.5068 34.6592C32.2703 35.8116 30.8909 36.8008 29.4023 37.6016C29.8674 36.7524 30.3526 35.7612 30.8379 34.6592H33.5068ZM6.17969 21.5166C6.28417 24.9569 6.89392 28.3631 7.98926 31.626H4.31934C4.16096 31.6265 4.00374 31.654 3.85449 31.707C1.67594 28.7278 0.376208 25.1973 0.103516 21.5166H6.17969ZM18.4736 31.626H11.2148C10.0147 28.3839 9.33872 24.9714 9.21289 21.5166H18.4736V31.626ZM30.7773 21.5166C30.6485 24.9719 29.9694 28.3846 28.7656 31.626H21.5068V21.5166H30.7773ZM39.8857 21.5166C39.6118 25.1622 38.3351 28.661 36.1963 31.626H31.9902C33.0892 28.3636 33.703 24.9574 33.8105 21.5166H39.8857ZM3.85449 8.29297C4.00374 8.34595 4.16096 8.37347 4.31934 8.37402H7.98926C6.89392 11.6369 6.28417 15.0431 6.17969 18.4834H0.103516C0.376205 14.8027 1.67595 11.2722 3.85449 8.29297ZM18.4736 18.4834H9.21289C9.33872 15.0286 10.0147 11.6161 11.2148 8.37402H18.4736V18.4834ZM28.7656 8.37402C29.9694 11.6154 30.6485 15.0281 30.7773 18.4834H21.5068V8.37402H28.7656ZM36.1963 8.37402C38.3351 11.339 39.6118 14.8378 39.8857 18.4834H33.8105C33.703 15.0426 33.0892 11.6364 31.9902 8.37402H36.1963ZM10.5771 2.39844C10.1222 3.24763 9.6376 4.23881 9.15234 5.34082H6.4834C7.71629 4.18869 9.09189 3.19934 10.5771 2.39844ZM18.4736 5.34082H12.498C13.2612 3.72088 14.1719 2.17422 15.2178 0.720703C15.2447 0.689463 15.2689 0.655113 15.2891 0.619141C16.3346 0.362427 17.4 0.193912 18.4736 0.114258V5.34082ZM21.5068 0.114258C22.5837 0.194725 23.6521 0.363209 24.7012 0.619141C24.7213 0.649439 24.7415 0.690409 24.7617 0.720703C25.8121 2.1714 26.7229 3.71838 27.4814 5.34082H21.5068V0.114258ZM29.4023 2.39844C30.8909 3.19924 32.2703 4.18842 33.5068 5.34082H30.8379C30.3526 4.23881 29.8674 3.24763 29.4023 2.39844Z" fill="white"/>
</g>
</svg>
