<svg width="24" height="24" viewBox="0 0 24 24" fill="none" xmlns="http://www.w3.org/2000/svg">
<g clip-path="url(#clip0_7226_3423)">
<path d="M-14 0H34V24H-14V0Z" fill="#00ABC2"/>
<path d="M11.9304 13.3092C13.7138 13.3092 15.1596 11.8634 15.1596 10.08C15.1596 8.29657 13.7138 6.8508 11.9304 6.8508C10.1469 6.8508 8.70117 8.29657 8.70117 10.08C8.70117 11.8634 10.1469 13.3092 11.9304 13.3092Z" fill="#FFEC2D"/>
<path d="M11.932 6.4104C12.124 6.408 12.196 6.288 12.196 6.144C12.196 5.952 11.932 5.0376 11.932 5.0376C11.932 5.0376 11.668 5.952 11.668 6.144C11.668 6.288 11.74 6.4104 11.932 6.4104Z" fill="#FFEC2D"/>
<path d="M15.5999 10.08C15.6023 10.272 15.7223 10.344 15.8663 10.344C16.0583 10.344 16.9727 10.08 16.9727 10.08C16.9727 10.08 16.0583 9.816 15.8663 9.816C15.7223 9.816 15.5999 9.888 15.5999 10.08Z" fill="#FFEC2D"/>
<path d="M11.9313 13.7496C11.7393 13.752 11.6673 13.872 11.6673 14.016C11.6673 14.208 11.9313 15.1224 11.9313 15.1224C11.9313 15.1224 12.1953 14.208 12.1953 14.016C12.1953 13.872 12.1233 13.7496 11.9313 13.7496Z" fill="#FFEC2D"/>
<path d="M8.26147 10.08C8.25907 9.888 8.13907 9.816 7.99507 9.816C7.80307 9.816 6.88867 10.08 6.88867 10.08C6.88867 10.08 7.80307 10.344 7.99507 10.344C8.13907 10.344 8.26147 10.272 8.26147 10.08Z" fill="#FFEC2D"/>
<path d="M13.3357 6.68973C13.514 6.76099 13.6265 6.67768 13.6816 6.54464C13.7551 6.36726 13.8611 5.42143 13.8611 5.42143C13.8611 5.42143 13.2673 6.1652 13.1938 6.34258C13.1387 6.47562 13.1584 6.61626 13.3357 6.68973Z" fill="#FFEC2D"/>
<path d="M15.3221 11.4843C15.2508 11.6626 15.3341 11.775 15.4672 11.8302C15.6446 11.9036 16.5904 12.0096 16.5904 12.0096C16.5904 12.0096 15.8466 11.4158 15.6692 11.3423C15.5362 11.2872 15.3956 11.3069 15.3221 11.4843Z" fill="#FFEC2D"/>
<path d="M10.5275 13.4703C10.3492 13.399 10.2368 13.4823 10.1817 13.6154C10.1082 13.7927 10.0022 14.7386 10.0022 14.7386C10.0022 14.7386 10.596 13.9948 10.6695 13.8174C10.7246 13.6844 10.7049 13.5437 10.5275 13.4703Z" fill="#FFEC2D"/>
<path d="M8.54121 8.67571C8.61246 8.4974 8.52915 8.38496 8.39611 8.32986C8.21873 8.25638 7.2729 8.15036 7.2729 8.15036C7.2729 8.15036 8.01667 8.74419 8.19406 8.81767C8.32709 8.87277 8.46773 8.85309 8.54121 8.67571Z" fill="#FFEC2D"/>
<path d="M14.5265 7.4852C14.664 7.61927 14.7997 7.58533 14.9016 7.4835C15.0373 7.34774 15.4972 6.51448 15.4972 6.51448C15.4972 6.51448 14.664 6.97439 14.5282 7.11015C14.4264 7.21197 14.3907 7.34944 14.5265 7.4852Z" fill="#FFEC2D"/>
<path d="M14.5262 12.6748C14.3921 12.8123 14.4261 12.948 14.5279 13.0498C14.6637 13.1856 15.4969 13.6455 15.4969 13.6455C15.4969 13.6455 15.037 12.8123 14.9013 12.6765C14.7994 12.5747 14.662 12.539 14.5262 12.6748Z" fill="#FFEC2D"/>
<path d="M9.33677 12.6748C9.19931 12.5407 9.06355 12.5747 8.96173 12.6765C8.82596 12.8123 8.36606 13.6455 8.36606 13.6455C8.36606 13.6455 9.19931 13.1856 9.33508 13.0498C9.4369 12.948 9.47254 12.8106 9.33677 12.6748Z" fill="#FFEC2D"/>
<path d="M9.33708 7.4852C9.47115 7.34774 9.43721 7.21198 9.33538 7.11015C9.19962 6.97439 8.36636 6.51449 8.36636 6.51449C8.36636 6.51449 8.82627 7.34774 8.96203 7.48351C9.06385 7.58533 9.20132 7.62097 9.33708 7.4852Z" fill="#FFEC2D"/>
<path d="M15.321 8.67571C15.3967 8.85217 15.5351 8.87277 15.6682 8.81767C15.8455 8.74419 16.5893 8.15036 16.5893 8.15036C16.5893 8.15036 15.6435 8.25638 15.4661 8.32986C15.3331 8.38496 15.2475 8.49832 15.321 8.67571Z" fill="#FFEC2D"/>
<path d="M13.3343 13.4703C13.1578 13.546 13.1372 13.6844 13.1923 13.8174C13.2658 13.9948 13.8596 14.7386 13.8596 14.7386C13.8596 14.7386 13.7536 13.7927 13.6801 13.6154C13.625 13.4823 13.5116 13.3968 13.3343 13.4703Z" fill="#FFEC2D"/>
<path d="M8.54032 11.4843C8.46463 11.3078 8.32621 11.2872 8.19317 11.3423C8.01579 11.4158 7.27202 12.0096 7.27202 12.0096C7.27202 12.0096 8.21784 11.9036 8.39523 11.8302C8.52827 11.775 8.6138 11.6617 8.54032 11.4843Z" fill="#FFEC2D"/>
<path d="M10.5271 6.68973C10.7035 6.61404 10.7241 6.47562 10.669 6.34258C10.5955 6.1652 10.0017 5.42143 10.0017 5.42143C10.0017 5.42143 10.1077 6.36726 10.1812 6.54464C10.2363 6.67768 10.3497 6.76321 10.5271 6.68973Z" fill="#FFEC2D"/>
<path d="M12.6474 6.48091C12.8361 6.51602 12.9302 6.41237 12.9583 6.27114C12.9957 6.08283 12.9152 5.13449 12.9152 5.13449C12.9152 5.13449 12.4779 5.97982 12.4404 6.16813C12.4123 6.30936 12.459 6.44346 12.6474 6.48091Z" fill="#FFEC2D"/>
<path d="M15.5298 10.7959C15.4947 10.9847 15.5984 11.0787 15.7396 11.1068C15.9279 11.1443 16.8762 11.0637 16.8762 11.0637C16.8762 11.0637 16.0309 10.6264 15.8426 10.589C15.7014 10.5609 15.5673 10.6076 15.5298 10.7959Z" fill="#FFEC2D"/>
<path d="M11.214 13.6791C11.0252 13.644 10.9312 13.7476 10.9031 13.8889C10.8656 14.0772 10.9462 15.0255 10.9462 15.0255C10.9462 15.0255 11.3835 14.1802 11.4209 13.9919C11.449 13.8506 11.4023 13.7165 11.214 13.6791Z" fill="#FFEC2D"/>
<path d="M8.33152 9.3641C8.36662 9.17532 8.26298 9.0813 8.12174 9.0532C7.93343 9.01575 6.9851 9.09628 6.9851 9.09628C6.9851 9.09628 7.83042 9.5336 8.01873 9.57106C8.15997 9.59915 8.29406 9.55241 8.33152 9.3641Z" fill="#FFEC2D"/>
<path d="M13.9685 7.02884C14.1295 7.13352 14.256 7.07374 14.3361 6.95401C14.4427 6.79437 14.7312 5.8874 14.7312 5.8874C14.7312 5.8874 14.0037 6.50103 13.897 6.66067C13.817 6.7804 13.8089 6.92217 13.9685 7.02884Z" fill="#FFEC2D"/>
<path d="M14.9814 12.1187C14.8767 12.2797 14.9365 12.4062 15.0563 12.4862C15.2159 12.5929 16.1229 12.8814 16.1229 12.8814C16.1229 12.8814 15.5092 12.1539 15.3496 12.0472C15.2299 11.9672 15.0881 11.9591 14.9814 12.1187Z" fill="#FFEC2D"/>
<path d="M9.89084 13.1312C9.72986 13.0265 9.60333 13.0863 9.52332 13.206C9.41665 13.3656 9.12815 14.2726 9.12815 14.2726C9.12815 14.2726 9.85567 13.659 9.96234 13.4993C10.0423 13.3796 10.0505 13.2378 9.89084 13.1312Z" fill="#FFEC2D"/>
<path d="M8.87991 8.04128C8.98458 7.88031 8.92481 7.75377 8.80508 7.67377C8.64543 7.5671 7.73847 7.2786 7.73847 7.2786C7.73847 7.2786 8.35209 8.00612 8.51173 8.11279C8.63147 8.19279 8.77324 8.20093 8.87991 8.04128Z" fill="#FFEC2D"/>
<path d="M14.9837 8.04127C15.0924 8.19958 15.2322 8.19278 15.3519 8.11278C15.5116 8.00611 16.1252 7.27859 16.1252 7.27859C16.1252 7.27859 15.2182 7.56709 15.0586 7.67376C14.9388 7.75376 14.8771 7.88163 14.9837 8.04127Z" fill="#FFEC2D"/>
<path d="M13.9709 13.1312C13.8126 13.2398 13.8194 13.3796 13.8994 13.4993C14.0061 13.659 14.7336 14.2726 14.7336 14.2726C14.7336 14.2726 14.4451 13.3656 14.3384 13.206C14.2584 13.0863 14.1306 13.0245 13.9709 13.1312Z" fill="#FFEC2D"/>
<path d="M8.88149 12.1187C8.77282 11.9604 8.63305 11.9672 8.51332 12.0472C8.35367 12.1539 7.74005 12.8814 7.74005 12.8814C7.74005 12.8814 8.64701 12.5929 8.80666 12.4862C8.92639 12.4062 8.98816 12.2784 8.88149 12.1187Z" fill="#FFEC2D"/>
<path d="M9.89235 7.02883C10.0507 6.92016 10.0439 6.78039 9.96386 6.66065C9.85719 6.50101 9.12966 5.88739 9.12966 5.88739C9.12966 5.88739 9.41817 6.79435 9.52484 6.954C9.60484 7.07373 9.73271 7.1355 9.89235 7.02883Z" fill="#FFEC2D"/>
<path d="M15.5293 9.3641C15.5691 9.55194 15.7009 9.59915 15.8421 9.57106C16.0304 9.5336 16.8757 9.09628 16.8757 9.09628C16.8757 9.09628 15.9274 9.01574 15.7391 9.0532C15.5978 9.08129 15.4918 9.17579 15.5293 9.3641Z" fill="#FFEC2D"/>
<path d="M12.6451 13.6791C12.4573 13.7189 12.4101 13.8506 12.4382 13.9919C12.4756 14.1802 12.9129 15.0255 12.9129 15.0255C12.9129 15.0255 12.9935 14.0772 12.956 13.8889C12.9279 13.7476 12.8334 13.6416 12.6451 13.6791Z" fill="#FFEC2D"/>
<path d="M8.33203 10.7959C8.29222 10.6081 8.16048 10.5609 8.01924 10.589C7.83093 10.6264 6.98561 11.0637 6.98561 11.0637C6.98561 11.0637 7.93394 11.1443 8.12225 11.1068C8.26348 11.0787 8.36949 10.9842 8.33203 10.7959Z" fill="#FFEC2D"/>
<path d="M11.2142 6.48092C11.4021 6.4411 11.4493 6.30936 11.4212 6.16813C11.3837 5.97982 10.9464 5.13449 10.9464 5.13449C10.9464 5.13449 10.8659 6.08283 10.9033 6.27114C10.9314 6.41237 11.0259 6.51837 11.2142 6.48092Z" fill="#FFEC2D"/>
<path d="M11.3542 17.0752C11.2678 17.08 11.1838 17.0912 11.1014 17.1176C10.9886 17.1328 10.8806 17.172 10.7686 17.1904L10.7238 17.1976L10.6486 17.2048C10.6534 17.2256 10.6566 17.2464 10.6566 17.2672C10.6566 17.2888 10.6542 17.3096 10.6486 17.3272C10.6438 17.344 10.6286 17.3648 10.6166 17.3776C10.6006 17.3952 10.5838 17.4104 10.5638 17.42C10.5446 17.4296 10.523 17.4336 10.5014 17.4352C10.4798 17.436 10.4574 17.4352 10.4366 17.4272C10.415 17.42 10.395 17.4064 10.3766 17.3904C10.3545 17.3959 10.332 17.3999 10.3094 17.4024C10.287 17.4048 10.2662 17.4048 10.2462 17.4024C10.2238 17.396 10.2006 17.3888 10.179 17.38C10.1572 17.371 10.1363 17.36 10.1166 17.3472C10.035 17.3952 9.94377 17.4408 9.89417 17.5248C9.86618 17.5632 9.86057 17.6072 9.85418 17.6528C9.85017 17.7088 9.86457 17.768 9.88857 17.82C9.89738 17.8352 9.90458 17.7648 9.93177 17.7552C9.97737 17.7176 10.0342 17.6904 10.0918 17.6752C10.1406 17.6504 10.1342 17.6768 10.1142 17.7152C10.1094 17.7352 10.0822 17.8112 10.119 17.7728C10.2814 17.7008 10.4614 17.6864 10.6366 17.6728C10.891 17.6464 11.1462 17.6408 11.4014 17.6376L12.1214 17.6528C12.2358 17.656 12.351 17.6816 12.4638 17.6624C12.491 17.6552 12.5334 17.6536 12.5494 17.6376C12.4982 17.608 12.4382 17.6072 12.3814 17.6H11.9238C11.7966 17.5872 11.6638 17.5856 11.5438 17.5376C11.5118 17.5248 11.4822 17.4944 11.4518 17.5272C11.4062 17.5432 11.3574 17.5544 11.3094 17.5576C11.2254 17.564 11.1414 17.5464 11.0638 17.5152C11.1198 17.4376 11.187 17.3696 11.2486 17.2976C11.199 17.2896 11.151 17.2792 11.1014 17.2672C11.1886 17.2072 11.2694 17.1392 11.3542 17.0752Z" fill="#FFEC2D"/>
<path d="M15.0929 17.9042C14.919 18.0086 14.7863 17.8236 14.641 17.768C14.5372 17.8244 14.5275 18.013 14.4305 18.1024C14.3145 18.2344 14.1723 18.0655 14.1828 17.9352C14.0441 18.0522 13.9739 18.3173 13.7495 18.2819C13.6432 18.1951 13.5642 18.0131 13.4829 18.2204C13.4167 18.3217 13.2403 18.4659 13.149 18.3129C13.1207 18.1777 13.0529 18.0189 12.9794 18.2335C12.929 18.3853 12.767 18.4969 12.6103 18.4305C12.5246 18.3604 12.6791 18.101 12.5699 18.1195C12.4067 18.2274 12.3119 18.4953 12.0841 18.4738C11.9957 18.3746 12.1378 18.2064 12.0408 18.0962C11.9263 18.2431 11.7993 18.4583 11.6012 18.4738C11.5055 18.3963 11.605 18.1738 11.5439 18.1409C11.3406 18.2628 11.1262 18.48 10.8707 18.4119C10.9703 18.031 11.3864 17.8973 11.7364 17.8676C12.3385 17.7936 12.972 17.9297 13.5514 17.7123C13.645 17.6554 13.8718 17.5746 13.791 17.4425C13.7195 17.3382 13.9771 17.379 14.0019 17.2571C13.9865 17.1028 14.1201 17.1241 14.2506 17.1105C14.8356 17.0853 15.4135 17.2085 15.9968 17.2294C16.0409 17.5136 15.7256 17.7132 15.4718 17.6254C15.3505 17.6451 15.1687 17.3467 15.2044 17.5638C15.1799 17.6777 15.197 17.8282 15.0929 17.9043M10.1153 17.3223C10.2508 17.4463 10.3457 17.299 10.4723 17.2452C10.8969 17.0991 11.2674 16.8439 11.6326 16.5889C11.8539 16.4058 12.0458 16.1683 12.343 16.1089C12.9227 15.9336 13.5389 15.9549 14.1209 15.7931C14.564 15.1864 15.3167 14.97 15.9472 14.6212C16.0888 14.5772 16.1435 14.4607 16.1887 14.3321C16.4294 13.9521 16.7572 13.6155 17.145 13.3855C17.3284 13.2853 17.5473 13.2276 17.755 13.2734C17.7401 13.5208 17.5982 13.74 17.4269 13.9111C17.5671 13.908 17.6876 13.8194 17.8293 13.8244C17.8778 14.0783 17.6037 14.2111 17.4578 14.3692C17.5391 14.3881 17.8503 14.4116 17.6807 14.493C17.4646 14.643 17.2177 14.746 17.0182 14.9202C17.2023 14.9533 17.2233 14.9924 17.0361 15.059C16.9348 15.1277 16.7399 15.1517 16.7211 15.2855C16.8601 15.3709 16.657 15.4558 16.5787 15.4836C16.4289 15.5185 16.2715 15.5835 16.4705 15.6973C16.3953 15.8111 16.2338 15.8353 16.102 15.8241C16.142 15.9529 16.1999 16.0972 16.0326 16.154C15.6576 16.4375 15.2175 16.6437 14.7462 16.6908C15.335 16.7361 15.9415 16.6268 16.4447 16.3066C16.5111 16.228 16.8595 16.1436 16.6646 16.0776C16.5729 16.0394 16.3763 15.997 16.363 15.9271C16.6355 15.7589 16.9789 15.8187 17.2721 15.7188C17.2797 15.6239 17.0491 15.6503 16.9631 15.6287C16.7581 15.6119 16.7701 15.5596 16.9678 15.5402C17.2179 15.474 17.5012 15.4609 17.7116 15.2978C17.5403 15.2185 17.3248 15.2883 17.142 15.2235C17.4519 15.0879 17.8175 15.0743 18.0955 14.8706C18.2221 14.7298 17.9332 14.7738 17.8491 14.7772C17.6775 14.8071 17.5981 14.7249 17.7931 14.6536C18.126 14.4082 18.5475 14.2488 18.7813 13.8929C18.8367 13.8132 18.9117 13.5732 18.735 13.6596C18.5027 13.7368 18.2983 13.998 18.0336 13.9172C18.5552 13.513 19.0515 13.0527 19.408 12.4933C19.4264 12.3319 19.1731 12.3145 19.1072 12.4412C18.7721 12.7641 18.4688 13.1452 18.0398 13.3476C18.4507 12.951 18.7904 12.4814 19.0868 11.9947C19.1503 11.85 19.3211 11.6759 19.2284 11.5151C19.079 11.3915 18.8921 11.5047 18.8145 11.6527C18.554 11.9927 18.3562 12.3897 18.0212 12.6666C18.3145 12.1069 18.6181 11.5111 18.6255 10.8655C18.6246 10.7326 18.5979 10.5369 18.4174 10.5617C18.2743 10.5874 18.3083 10.8015 18.2493 10.9098C18.1195 11.3509 18.0585 11.8285 17.7921 12.2147C17.8521 11.8563 17.9569 11.4827 17.8764 11.1208C17.8388 10.959 17.5776 11.0286 17.6113 11.1887C17.2992 12.7693 16.2386 14.1517 14.8515 14.9514C14.2164 15.3108 13.507 15.5425 12.7852 15.6475C12.591 15.69 12.381 15.665 12.1955 15.7312C11.7458 16.076 11.4736 16.653 10.9042 16.8337C10.6491 16.9605 10.3163 16.9862 10.1339 17.2233C10.1181 17.2536 10.1147 17.2887 10.1153 17.3223Z" fill="#FFEC2D"/>
<path d="M11.8184 15.7188C11.7344 15.8713 11.6849 16.0466 11.5769 16.1831C11.2519 15.8874 10.7808 15.8972 10.3686 15.8775C10.0283 15.8593 9.65834 15.828 9.39508 15.5853C9.11815 15.3584 8.89209 15.0639 8.58264 14.8799C8.30018 14.8031 8.01544 14.707 7.78835 14.5134C7.30307 14.1178 7.02516 13.5309 6.55096 13.123C6.46056 13.034 6.35395 12.965 6.25267 12.8895C6.15643 12.913 6.19999 13.1207 6.08222 13.0148C6.01814 12.9692 5.85787 12.9648 5.84342 13.0284C5.9884 13.2195 6.13353 13.4376 6.15362 13.682C6.05474 13.6921 5.87894 13.6611 5.82993 13.6979C5.96123 13.8947 6.12955 14.0693 6.32078 14.2082C6.22905 14.223 6.04831 14.2149 6.01315 14.2519C6.20296 14.4066 6.40651 14.5647 6.65508 14.6045C6.70596 14.6715 6.58067 14.801 6.68603 14.8583C6.74711 14.8832 6.94869 14.925 6.80985 14.9945C6.71457 15.0587 6.74992 15.2083 6.87177 15.205C6.94881 15.2443 7.12178 15.2539 7.13531 15.3221C7.06703 15.3916 6.85456 15.474 7.0354 15.539C7.20434 15.6327 7.39701 15.6936 7.58992 15.7003C7.49311 15.7817 7.37383 15.8279 7.27418 15.9046C7.71938 16.1656 8.21289 16.3373 8.70057 16.5026C8.89473 16.5675 9.09115 16.628 9.29241 16.6661C8.70758 16.6323 8.14231 16.4592 7.60965 16.2222C7.33358 16.1011 7.05564 15.9841 6.7727 15.8798C6.89676 15.8153 7.04025 15.7995 7.16891 15.7436C6.90184 15.6901 6.61007 15.6726 6.37531 15.5258C6.41131 15.4615 6.5477 15.4585 6.62313 15.4258C6.76499 15.3918 6.853 15.3506 6.65296 15.3383C6.45124 15.2835 6.21988 15.3081 6.04211 15.1864C6.05356 15.1135 6.23961 15.1389 6.31538 15.1074C6.4108 15.091 6.51688 15.0773 6.59313 15.0131C6.28127 14.8838 5.87337 14.9754 5.6291 14.7C5.57277 14.5951 5.80404 14.6796 5.86989 14.6621C6.03724 14.6621 6.2171 14.7153 6.37646 14.6478C5.92204 14.4483 5.4353 14.2615 5.08874 13.8925C5.05027 13.8332 4.93497 13.6711 5.02799 13.6511C5.29773 13.6867 5.49297 13.9811 5.7815 13.9353C5.81983 13.8836 5.61388 13.799 5.56247 13.7251C5.1418 13.3641 4.73351 12.9724 4.43867 12.4995C4.41839 12.3416 4.6666 12.318 4.73196 12.4399C5.05368 12.7498 5.34429 13.1114 5.74499 13.3229C5.88717 13.3919 5.66335 13.2413 5.63354 13.1867C5.26329 12.7568 4.91083 12.3027 4.65206 11.7963C4.60574 11.7051 4.52899 11.5399 4.66756 11.4913C4.80611 11.4219 4.94359 11.5165 5.01384 11.6355C5.28604 11.9788 5.48635 12.3868 5.82544 12.6729C5.53655 12.1123 5.22811 11.5221 5.22064 10.877C5.22744 10.752 5.23547 10.5628 5.40506 10.5679C5.54745 10.5463 5.52496 10.7286 5.57162 10.8156C5.71192 11.2895 5.7731 11.8025 6.05455 12.2209C5.99239 11.8693 5.90087 11.5073 5.96167 11.1498C5.97568 11.0325 6.1078 10.997 6.19403 11.0679C6.26375 11.2386 6.27827 11.4493 6.3418 11.6317C6.70324 12.8682 7.5148 13.9557 8.57239 14.6855C9.4434 15.2828 10.4771 15.6395 11.5321 15.7016C11.6273 15.7099 11.723 15.7128 11.8184 15.7187" fill="#FFEC2D"/>
<path d="M10.4787 17.3581C10.5101 17.3581 10.5355 17.3327 10.5355 17.3013C10.5355 17.2699 10.5101 17.2445 10.4787 17.2445C10.4473 17.2445 10.4219 17.2699 10.4219 17.3013C10.4219 17.3327 10.4473 17.3581 10.4787 17.3581Z" fill="#FFEC2D"/>
<path d="M10.4743 17.3153C10.4871 17.3153 10.4975 17.305 10.4975 17.2922C10.4975 17.2794 10.4871 17.269 10.4743 17.269C10.4615 17.269 10.4512 17.2794 10.4512 17.2922C10.4512 17.305 10.4615 17.3153 10.4743 17.3153Z" fill="#FFEC2D" stroke="#FFEC2D" stroke-width="0.1905"/>
</g>
<defs>
<clipPath id="clip0_7226_3423">
<rect width="48" height="24" fill="white" transform="translate(-14)"/>
</clipPath>
</defs>
</svg>
