<svg width="83" height="40" viewBox="0 0 83 40" fill="none" xmlns="http://www.w3.org/2000/svg">
<path d="M0 38.6121H0.785142C0.813182 38.8619 0.897305 39.0284 1.00947 39.1117C1.12163 39.2228 1.31792 39.2505 1.57028 39.2505C2.04698 39.2505 2.2713 39.0562 2.2713 38.6953C2.2713 38.5288 2.21522 38.39 2.1311 38.3067C2.04698 38.2235 1.87873 38.1679 1.68245 38.1124L1.26183 38.0569C0.476693 37.9181 0.0841223 37.5295 0.0841223 36.8633C0.0841223 36.4747 0.224326 36.1416 0.476693 35.9195C0.757101 35.6974 1.09359 35.5586 1.54224 35.5586C1.96285 35.5586 2.29934 35.6697 2.55171 35.8917C2.80408 36.1138 2.94428 36.4469 2.97232 36.8355H2.18718C2.18718 36.6135 2.10306 36.4747 1.99089 36.3914C1.87873 36.3081 1.71049 36.2526 1.5142 36.2526C1.28988 36.2526 1.14967 36.3081 1.03751 36.3914C0.925345 36.4747 0.869264 36.6135 0.869264 36.8078C0.869264 36.9466 0.925345 37.0854 1.00947 37.1686C1.09359 37.2519 1.26183 37.3074 1.45812 37.3629L1.90677 37.4462C2.66387 37.585 3.0284 37.9736 3.0284 38.6676C3.0284 39.1117 2.8882 39.4448 2.60779 39.6669C2.32738 39.889 1.96285 40 1.48616 40C1.00947 40 0.644938 39.889 0.392571 39.6669C0.168245 39.3893 0.0280408 39.0562 0 38.6121ZM6.86999 36.3359V39.9445H6.02877V36.3359H4.90714V35.6142H7.96358V36.3359H6.86999ZM10.347 39.084L10.0947 39.9167H9.22541L10.7677 35.6142H11.4406L12.9829 39.9167H12.1136L11.8612 39.084H10.347ZM11.1041 36.7523L10.5714 38.4178H11.6369L11.1041 36.7523ZM15.787 38.1957V39.9445H14.9738V35.6419H16.6282C17.0488 35.6419 17.3853 35.7529 17.6376 35.975C17.89 36.1971 18.0302 36.5302 18.0302 36.9188C18.0302 37.1964 17.9741 37.4462 17.8339 37.6405C17.6937 37.8348 17.4974 37.9736 17.2731 38.0847L18.2265 39.9722H17.2731L16.4599 38.2235H15.787V38.1957ZM16.5721 37.5017C16.7684 37.5017 16.9086 37.4462 17.0208 37.3352C17.1329 37.2241 17.189 37.0854 17.189 36.891C17.189 36.7245 17.1329 36.5857 17.0208 36.4747C16.9086 36.3636 16.7684 36.3081 16.5721 36.3081H15.787V37.474H16.5721V37.5017ZM21.0867 35.6142V39.2228H22.9934V39.9445H20.2735V35.6419H21.0867V35.6142ZM25.9658 35.6142V39.9445H25.1526V35.6419H25.9658V35.6142ZM31.6019 39.9445H30.7888L29.1904 37.2519V39.9445H28.3212V35.6419H29.1344L30.7327 38.3345V35.6419H31.5459V39.9445H31.6019ZM34.7425 38.7231V39.9167H33.9293V35.6142H34.7425V37.6128L36.2567 35.6142H37.2381L35.8361 37.3352L37.3503 39.9167H36.3969L35.3314 38.0014L34.7425 38.7231Z" fill="#131313"/>
<path d="M1.23422 30.2845L0.140625 31.3393H9.81469C35.8926 5.4129 73.4392 0.804989 83.0011 0.0277509V-7.62939e-06C30.8172 2.97015 6.70217 25.0659 1.23422 30.2845Z" fill="#131313"/>
<path d="M27.8165 31.3394H37.3784L24.1431 21.6794C22.5448 22.762 20.8904 23.9833 19.3201 25.2047L27.8165 31.3394ZM10.3471 11.5198H0.785156L12.0015 19.653C13.6278 18.5704 15.5066 17.4046 17.2451 16.4053L10.3471 11.5198Z" fill="#131313"/>
</svg>
