<svg width="24" height="24" viewBox="0 0 24 24" fill="none" xmlns="http://www.w3.org/2000/svg">
<g clip-path="url(#clip0_7226_3700)">
<path d="M6.75 22.5C9.6495 22.5 12 20.1495 12 17.25C12 14.3505 9.6495 12 6.75 12C3.85051 12 1.5 14.3505 1.5 17.25C1.5 20.1495 3.85051 22.5 6.75 22.5Z" stroke="#131313" stroke-width="2" stroke-miterlimit="10" stroke-linecap="round" stroke-linejoin="round"/>
<path d="M20.25 22.5C21.9069 22.5 23.25 21.1569 23.25 19.5C23.25 17.8431 21.9069 16.5 20.25 16.5C18.5931 16.5 17.25 17.8431 17.25 19.5C17.25 21.1569 18.5931 22.5 20.25 22.5Z" stroke="#131313" stroke-width="2" stroke-miterlimit="10" stroke-linecap="round" stroke-linejoin="round"/>
<path d="M14.25 3.75H5.25" stroke="#131313" stroke-width="2" stroke-miterlimit="10" stroke-linecap="round" stroke-linejoin="round"/>
<path d="M1.42578 12C2.77578 10.575 4.65078 9.75 6.75078 9.75C10.8758 9.75 14.2508 13.125 14.2508 17.25C14.2508 17.475 14.2508 17.775 14.2508 18" stroke="#131313" stroke-width="2" stroke-miterlimit="10" stroke-linecap="round" stroke-linejoin="round"/>
<path d="M22.8754 18H23.2504V9.75H14.4004L12.0004 3.75H5.25039L3.90039 10.35" stroke="#131313" stroke-width="2" stroke-miterlimit="10" stroke-linecap="round" stroke-linejoin="round"/>
<path d="M14.25 18H16.5H17.625" stroke="#131313" stroke-width="2" stroke-miterlimit="10" stroke-linecap="round" stroke-linejoin="round"/>
<path d="M6.75 18.75C7.57843 18.75 8.25 18.0784 8.25 17.25C8.25 16.4216 7.57843 15.75 6.75 15.75C5.92157 15.75 5.25 16.4216 5.25 17.25C5.25 18.0784 5.92157 18.75 6.75 18.75Z" stroke="#131313" stroke-width="2" stroke-miterlimit="10" stroke-linecap="round" stroke-linejoin="round"/>
<path d="M17.25 6C18.075 6 18.75 6.675 18.75 7.5V12" stroke="#131313" stroke-width="2" stroke-miterlimit="10" stroke-linecap="round" stroke-linejoin="round"/>
</g>
<defs>
<clipPath id="clip0_7226_3700">
<rect width="24" height="24" fill="white"/>
</clipPath>
</defs>
</svg>
