<svg width="32" height="32" viewBox="0 0 32 32" fill="none" xmlns="http://www.w3.org/2000/svg">
<path d="M22 13V10C22 6.7 19.3 4 16 4C12.7 4 10 6.7 10 10V13C7.2 13 5 15.2 5 18C5 20.8 7.2 23 10 23H22C24.8 23 27 20.8 27 18C27 15.2 24.8 13 22 13Z" stroke="#131313" stroke-width="2" stroke-miterlimit="10" stroke-linecap="round" stroke-linejoin="round"/>
<path d="M16 30V21.3C16 19.9 15.3 18.5 14.1 17.7C13.4 17.2 12.6 17 11.7 17H10" stroke="#131313" stroke-width="2" stroke-miterlimit="10" stroke-linecap="round" stroke-linejoin="round"/>
<path d="M16 9V19" stroke="#131313" stroke-width="2" stroke-miterlimit="10" stroke-linecap="round" stroke-linejoin="round"/>
<path d="M16 20H16.4C18.7 20 20.8 18.9 22 17" stroke="#131313" stroke-width="2" stroke-miterlimit="10" stroke-linecap="round" stroke-linejoin="round"/>
</svg>
